<svg viewBox="0 0 1496 400" xmlns="http://www.w3.org/2000/svg"><g><g><g><g><g><line x1="50" y1="378" x2="45" y2="378" style="visibility: inherit;" fill="rgb(0, 0, 0)" stroke="rgb(204, 204, 204)" stroke-width="1px"></line><line x1="50" y1="346.5" x2="45" y2="346.5" style="visibility: inherit;" fill="rgb(0, 0, 0)" stroke="rgb(204, 204, 204)" stroke-width="1px"></line><line x1="50" y1="315.0000000000003" x2="45" y2="315.0000000000003" style="visibility: inherit;" fill="rgb(0, 0, 0)" stroke="rgb(204, 204, 204)" stroke-width="1px"></line><line x1="50" y1="283.5000000000002" x2="45" y2="283.5000000000002" style="visibility: inherit;" fill="rgb(0, 0, 0)" stroke="rgb(204, 204, 204)" stroke-width="1px"></line><line x1="50" y1="252.00000000000023" x2="45" y2="252.00000000000023" style="visibility: inherit;" fill="rgb(0, 0, 0)" stroke="rgb(204, 204, 204)" stroke-width="1px"></line><line x1="50" y1="220.5000000000002" x2="45" y2="220.5000000000002" style="visibility: inherit;" fill="rgb(0, 0, 0)" stroke="rgb(204, 204, 204)" stroke-width="1px"></line><line x1="50" y1="189.00000000000017" x2="45" y2="189.00000000000017" style="visibility: inherit;" fill="rgb(0, 0, 0)" stroke="rgb(204, 204, 204)" stroke-width="1px"></line><line x1="50" y1="157.50000000000014" x2="45" y2="157.50000000000014" style="visibility: inherit;" fill="rgb(0, 0, 0)" stroke="rgb(204, 204, 204)" stroke-width="1px"></line><line x1="50" y1="126.00000000000009" x2="45" y2="126.00000000000009" style="visibility: inherit;" fill="rgb(0, 0, 0)" stroke="rgb(204, 204, 204)" stroke-width="1px"></line><line x1="50" y1="94.50000000000006" x2="45" y2="94.50000000000006" style="visibility: inherit;" fill="rgb(0, 0, 0)" stroke="rgb(204, 204, 204)" stroke-width="1px"></line><line x1="50" y1="63.00000000000006" x2="45" y2="63.00000000000006" style="visibility: inherit;" fill="rgb(0, 0, 0)" stroke="rgb(204, 204, 204)" stroke-width="1px"></line><line x1="50" y1="31.5" x2="45" y2="31.5" style="visibility: inherit;" fill="rgb(0, 0, 0)" stroke="rgb(204, 204, 204)" stroke-width="1px"></line><line x1="50" y1="0" x2="45" y2="0" style="visibility: inherit;" fill="rgb(0, 0, 0)" stroke="rgb(204, 204, 204)" stroke-width="1px"></line></g><g transform="translate(40, 0)"><text x="0" y="378" dx="0em" dy="0.3em" style="text-anchor: end; visibility: hidden; font-family: &quot;Helvetica Neue&quot;, sans-serif; font-size: 12px; font-weight: 200;" fill="rgb(50, 49, 63)" stroke="none" stroke-width="1px">0.8</text><text x="0" y="346.5" dx="0em" dy="0.3em" style="text-anchor: end; visibility: inherit; font-family: &quot;Helvetica Neue&quot;, sans-serif; font-size: 12px; font-weight: 200;" fill="rgb(50, 49, 63)" stroke="none" stroke-width="1px">0.81</text><text x="0" y="315.0000000000003" dx="0em" dy="0.3em" style="text-anchor: end; visibility: inherit; font-family: &quot;Helvetica Neue&quot;, sans-serif; font-size: 12px; font-weight: 200;" fill="rgb(50, 49, 63)" stroke="none" stroke-width="1px">0.82</text><text x="0" y="283.5000000000002" dx="0em" dy="0.3em" style="text-anchor: end; visibility: inherit; font-family: &quot;Helvetica Neue&quot;, sans-serif; font-size: 12px; font-weight: 200;" fill="rgb(50, 49, 63)" stroke="none" stroke-width="1px">0.83</text><text x="0" y="252.00000000000023" dx="0em" dy="0.3em" style="text-anchor: end; visibility: inherit; font-family: &quot;Helvetica Neue&quot;, sans-serif; font-size: 12px; font-weight: 200;" fill="rgb(50, 49, 63)" stroke="none" stroke-width="1px">0.84</text><text x="0" y="220.5000000000002" dx="0em" dy="0.3em" style="text-anchor: end; visibility: inherit; font-family: &quot;Helvetica Neue&quot;, sans-serif; font-size: 12px; font-weight: 200;" fill="rgb(50, 49, 63)" stroke="none" stroke-width="1px">0.85</text><text x="0" y="189.00000000000017" dx="0em" dy="0.3em" style="text-anchor: end; visibility: inherit; font-family: &quot;Helvetica Neue&quot;, sans-serif; font-size: 12px; font-weight: 200;" fill="rgb(50, 49, 63)" stroke="none" stroke-width="1px">0.86</text><text x="0" y="157.50000000000014" dx="0em" dy="0.3em" style="text-anchor: end; visibility: inherit; font-family: &quot;Helvetica Neue&quot;, sans-serif; font-size: 12px; font-weight: 200;" fill="rgb(50, 49, 63)" stroke="none" stroke-width="1px">0.87</text><text x="0" y="126.00000000000009" dx="0em" dy="0.3em" style="text-anchor: end; visibility: inherit; font-family: &quot;Helvetica Neue&quot;, sans-serif; font-size: 12px; font-weight: 200;" fill="rgb(50, 49, 63)" stroke="none" stroke-width="1px">0.88</text><text x="0" y="94.50000000000006" dx="0em" dy="0.3em" style="text-anchor: end; visibility: inherit; font-family: &quot;Helvetica Neue&quot;, sans-serif; font-size: 12px; font-weight: 200;" fill="rgb(50, 49, 63)" stroke="none" stroke-width="1px">0.89</text><text x="0" y="63.00000000000006" dx="0em" dy="0.3em" style="text-anchor: end; visibility: inherit; font-family: &quot;Helvetica Neue&quot;, sans-serif; font-size: 12px; font-weight: 200;" fill="rgb(50, 49, 63)" stroke="none" stroke-width="1px">0.9</text><text x="0" y="31.5" dx="0em" dy="0.3em" style="text-anchor: end; visibility: inherit; font-family: &quot;Helvetica Neue&quot;, sans-serif; font-size: 12px; font-weight: 200;" fill="rgb(50, 49, 63)" stroke="none" stroke-width="1px">0.91</text><text x="0" y="0" dx="0em" dy="0.3em" style="text-anchor: end; visibility: hidden; font-family: &quot;Helvetica Neue&quot;, sans-serif; font-size: 12px; font-weight: 200;" fill="rgb(50, 49, 63)" stroke="none" stroke-width="1px">0.92</text></g><line x1="50" y1="0" x2="50" y2="378" fill="rgb(0, 0, 0)" stroke="rgb(204, 204, 204)" stroke-width="1px"></line></g></g><g transform="translate(50, 0)" clip-path="url(#clip_0)"><clipPath id="clip_0"><rect width="1446" height="378"></rect></clipPath><g><g><g><line x1="0" y1="0" x2="0" y2="378" fill="rgb(0, 0, 0)" stroke="rgb(60, 60, 60)" stroke-width="1px" opacity="0.25"></line><line x1="160.66666666666666" y1="0" x2="160.66666666666666" y2="378" fill="rgb(0, 0, 0)" stroke="rgb(60, 60, 60)" stroke-width="1px" opacity="0.25"></line><line x1="321.3333333333333" y1="0" x2="321.3333333333333" y2="378" fill="rgb(0, 0, 0)" stroke="rgb(60, 60, 60)" stroke-width="1px" opacity="0.25"></line><line x1="482" y1="0" x2="482" y2="378" fill="rgb(0, 0, 0)" stroke="rgb(60, 60, 60)" stroke-width="1px" opacity="0.25"></line><line x1="642.6666666666666" y1="0" x2="642.6666666666666" y2="378" fill="rgb(0, 0, 0)" stroke="rgb(60, 60, 60)" stroke-width="1px" opacity="0.25"></line><line x1="803.3333333333334" y1="0" x2="803.3333333333334" y2="378" fill="rgb(0, 0, 0)" stroke="rgb(60, 60, 60)" stroke-width="1px" opacity="0.25"></line><line x1="964" y1="0" x2="964" y2="378" fill="rgb(0, 0, 0)" stroke="rgb(60, 60, 60)" stroke-width="1px" opacity="0.25"></line><line x1="1124.6666666666667" y1="0" x2="1124.6666666666667" y2="378" fill="rgb(0, 0, 0)" stroke="rgb(60, 60, 60)" stroke-width="1px" opacity="0.25"></line><line x1="1285.3333333333333" y1="0" x2="1285.3333333333333" y2="378" fill="rgb(0, 0, 0)" stroke="rgb(60, 60, 60)" stroke-width="1px" opacity="0.25"></line><line x1="1446" y1="0" x2="1446" y2="378" fill="rgb(0, 0, 0)" stroke="rgb(60, 60, 60)" stroke-width="1px" opacity="0.25"></line></g><g><line x1="0" y1="378" x2="1446" y2="378" fill="rgb(0, 0, 0)" stroke="rgb(60, 60, 60)" stroke-width="1px" opacity="0.25"></line><line x1="0" y1="346.5" x2="1446" y2="346.5" fill="rgb(0, 0, 0)" stroke="rgb(60, 60, 60)" stroke-width="1px" opacity="0.25"></line><line x1="0" y1="315.0000000000003" x2="1446" y2="315.0000000000003" fill="rgb(0, 0, 0)" stroke="rgb(60, 60, 60)" stroke-width="1px" opacity="0.25"></line><line x1="0" y1="283.5000000000002" x2="1446" y2="283.5000000000002" fill="rgb(0, 0, 0)" stroke="rgb(60, 60, 60)" stroke-width="1px" opacity="0.25"></line><line x1="0" y1="252.00000000000023" x2="1446" y2="252.00000000000023" fill="rgb(0, 0, 0)" stroke="rgb(60, 60, 60)" stroke-width="1px" opacity="0.25"></line><line x1="0" y1="220.5000000000002" x2="1446" y2="220.5000000000002" fill="rgb(0, 0, 0)" stroke="rgb(60, 60, 60)" stroke-width="1px" opacity="0.25"></line><line x1="0" y1="189.00000000000017" x2="1446" y2="189.00000000000017" fill="rgb(0, 0, 0)" stroke="rgb(60, 60, 60)" stroke-width="1px" opacity="0.25"></line><line x1="0" y1="157.50000000000014" x2="1446" y2="157.50000000000014" fill="rgb(0, 0, 0)" stroke="rgb(60, 60, 60)" stroke-width="1px" opacity="0.25"></line><line x1="0" y1="126.00000000000009" x2="1446" y2="126.00000000000009" fill="rgb(0, 0, 0)" stroke="rgb(60, 60, 60)" stroke-width="1px" opacity="0.25"></line><line x1="0" y1="94.50000000000006" x2="1446" y2="94.50000000000006" fill="rgb(0, 0, 0)" stroke="rgb(60, 60, 60)" stroke-width="1px" opacity="0.25"></line><line x1="0" y1="63.00000000000006" x2="1446" y2="63.00000000000006" fill="rgb(0, 0, 0)" stroke="rgb(60, 60, 60)" stroke-width="1px" opacity="0.25"></line><line x1="0" y1="31.5" x2="1446" y2="31.5" fill="rgb(0, 0, 0)" stroke="rgb(60, 60, 60)" stroke-width="1px" opacity="0.25"></line><line x1="0" y1="0" x2="1446" y2="0" fill="rgb(0, 0, 0)" stroke="rgb(60, 60, 60)" stroke-width="1px" opacity="0.25"></line></g></g></g><g><g><line x1="0" y1="2898" x2="1446" y2="2898" fill="rgb(0, 0, 0)" stroke="rgb(153, 153, 153)" stroke-width="1.5px"></line></g></g><g><g><line x1="160.66666666666666" y1="0" x2="160.66666666666666" y2="378" fill="rgb(0, 0, 0)" stroke="rgb(153, 153, 153)" stroke-width="1.5px"></line></g></g><g><g><g><g><g><path stroke="rgb(255, 112, 67)" stroke-width="2px" d="M192.8,399.8399566411973L199.22666666666666,373.09994208812725L205.65333333333334,350.4749457836152L212.08,332.52184796333324L218.50666666666666,316.1083381175996L224.93333333333334,302.4525682926179L231.36,290.75451600551617L237.78666666666666,281.22502970695507L244.21333333333334,272.4749128818513L250.64000000000001,264.7499363422395L257.06666666666666,255.15004205703747L263.49333333333334,248.68602561950698L269.92,241.80876123905193L276.3466666666667,235.75423765182506L282.77333333333337,229.75660371780407L289.2,225.51372456550612L295.62666666666667,219.42502963542952L302.05333333333334,213.91368019580852L308.48,208.76732575893416L314.90666666666664,204.68441355228438L321.3333333333333,201.57895195484176L327.76,197.70294535160076L334.18666666666667,194.1526930332185L340.61333333333334,191.0436640977861L347.03999999999996,188.09478986263287L353.46666666666664,185.22007870674148L359.8933333333333,181.819279074669L366.32000000000005,178.82816004753127L372.74666666666667,176.0341833829881L379.17333333333335,173.82130730152144L385.6,172.03500974178326L392.0266666666667,169.95412516593944L398.4533333333333,167.61695551872268L404.88000000000005,165.2506839036943L411.3066666666667,163.44992923736586L417.7333333333333,161.43757510185253L424.16,159.45920455455794L430.58666666666664,157.1625899076463L437.0133333333333,155.76625871658337L443.43999999999994,154.03985488414776L449.8666666666667,151.79506051540386L456.2933333333333,149.96745693683636L462.72,148.8989453315736L469.14666666666665,147.7656583786012L475.5733333333333,145.68214523792278L482,144.17541432380688L488.4266666666667,141.8528895378114L494.8533333333333,140.5282806158067L501.28000000000003,139.50145053863537L507.70666666666665,138.1235193014146L514.1333333333333,136.51915597915664L520.56,135.3094528913499L526.9866666666667,134.1881822347642L533.4133333333333,132.86113250255596L539.84,131.68597626686108L546.2666666666667,130.49748945236217L552.6933333333334,129.11561536788955L559.12,127.79513704776775L565.5466666666667,126.6917030811311L571.9733333333334,125.0484745502473L578.4,124.01300776004805L584.8266666666667,122.8102515935899L591.2533333333333,121.8312989473344L597.68,120.68824875354778L604.1066666666667,119.47178649902355L610.5333333333333,118.68753540515911L616.96,117.49642002582561L623.3866666666667,116.33853721618664L629.8133333333333,115.61511862277996L636.24,114.79050028324139L642.6666666666666,113.86205363273632L649.0933333333334,112.80593383312237L655.52,112.15235996246349L661.9466666666667,111.31347227096569L668.3733333333333,110.66196370124828L674.8,109.69878244400036L681.2266666666667,108.80469489097607L687.6533333333333,107.85540747642528L694.0799999999999,106.92921388149273L700.5066666666667,106.23132991790783L706.9333333333333,105.38906264305126L713.36,104.5543055534364L719.7866666666666,103.78094422817242L726.2133333333334,103.10277450084698L732.6400000000001,102.38085794448864L739.0666666666666,101.67508828639995L745.4933333333333,100.88069844245922L751.9200000000001,100.23501026630413L758.3466666666667,99.43949389457714L764.7733333333333,98.61055719852459L771.2,98.18059909343731L777.6266666666667,97.65000450611126L784.0533333333334,97.05463457107555L790.4799999999999,96.51972162723553L796.9066666666666,95.8362947702409L803.3333333333334,95.01449275016796L809.7600000000001,94.06332778930675L816.1866666666666,93.44486403465282L822.6133333333333,92.89436745643627L829.0400000000001,92.17282640934002L835.4666666666666,91.40002834796917L841.8933333333333,90.67642199993145L848.32,89.93685650825512L854.7466666666667,89.37640893459331L861.1733333333333,88.87904691696178L867.6,88.47687649726879L874.0266666666666,87.90197181701672L880.4533333333334,87.11246359348308L886.8799999999999,86.4530693292619L893.3066666666666,85.78691589832317L899.7333333333333,85.23717033863079L906.1600000000001,84.79200410842907L912.5866666666666,84.14800572395336L919.0133333333333,83.51940321922314L925.44,83.00739634037029L931.8666666666667,82.74435210227978L938.2933333333333,82.06486809253704L944.72,81.40941667556774L951.1466666666666,80.77311623096477L957.5733333333334,80.18957483768475L964,79.71173930168163L970.4266666666666,79.30412399768841L976.8533333333334,78.88223934173595L983.2800000000001,78.49152195453655L989.7066666666666,78.19655942916881L996.1333333333333,77.66765463352215L1002.5600000000001,77.10288870334637L1008.9866666666668,76.6539673805238L1015.4133333333333,76.1920909881593L1021.84,75.68628001213085L1028.2666666666667,75.1994322538377L1034.6933333333332,74.69662535190594L1041.12,74.30853652954113L1047.5466666666666,73.93377828598034L1053.9733333333334,73.46213865280163L1060.3999999999999,73.05377233028423L1066.8266666666666,72.40151274204266L1073.2533333333333,72.0507870912553L1079.68,71.56882095336925L1086.1066666666666,71.05005490779888L1092.5333333333333,70.57090508937847L1098.96,70.2205549478532L1105.3866666666668,70.01064527034771L1111.8133333333333,69.6477155685426L1118.24,69.19785547256481L1124.6666666666667,68.74705660343182L1131.0933333333335,68.19787430763256L1137.52,67.75270807743084L1143.9466666666667,67.21028494834911L1150.3733333333334,66.92377138137829L1156.8,66.50226223468792L1163.2266666666667,66.13989579677593L1169.6533333333334,65.7887946367265L1176.08,65.45215058326733L1182.5066666666667,65.23210215568554L1188.9333333333334,64.80139303207409L1195.36,64.4478510618211L1201.7866666666666,63.99817872047436L1208.2133333333334,63.58943688869488L1214.6399999999999,63.22087454795849L1221.0666666666666,62.82508778572094L1227.4933333333333,62.46872949600231L1233.92,62.16381597518932L1240.3466666666666,61.824918866157645L1246.7733333333333,61.47475647926342L1253.2,61.094553351402396L1259.6266666666666,60.62986063957226L1266.0533333333333,60.17662096023571L1272.48,59.865136027336234L1278.9066666666668,59.53018176555645L1285.3333333333333,59.192974448204154L1291.76,58.787987709045524L1298.1866666666667,58.45303344726574L1304.6133333333335,58.136291384697074L1311.04,57.89371240139019L1317.4666666666667,57.586733579635734L1323.8933333333334,57.15245711803448L1330.3200000000002,56.87889862060558L1336.7466666666667,56.37590396404278L1343.1733333333334,55.98950493335735L1349.6,55.72383213043224L1356.0266666666666,55.41854310035717L1362.4533333333334,55.12789893150341L1368.8799999999999,54.92944228649151L1375.3066666666666,54.61945939064037" style="fill: none;" fill="none"></path></g></g></g></g></g></g><g transform="translate(50, 378)" clip-path="url(#clip_1)"><clipPath id="clip_1"><rect width="1446" height="22"></rect></clipPath><g><g><line x1="0" y1="0" x2="0" y2="5" style="visibility: inherit;" fill="rgb(0, 0, 0)" stroke="rgb(204, 204, 204)" stroke-width="1px"></line><line x1="160.66666666666666" y1="0" x2="160.66666666666666" y2="5" style="visibility: inherit;" fill="rgb(0, 0, 0)" stroke="rgb(204, 204, 204)" stroke-width="1px"></line><line x1="321.3333333333333" y1="0" x2="321.3333333333333" y2="5" style="visibility: inherit;" fill="rgb(0, 0, 0)" stroke="rgb(204, 204, 204)" stroke-width="1px"></line><line x1="482" y1="0" x2="482" y2="5" style="visibility: inherit;" fill="rgb(0, 0, 0)" stroke="rgb(204, 204, 204)" stroke-width="1px"></line><line x1="642.6666666666666" y1="0" x2="642.6666666666666" y2="5" style="visibility: inherit;" fill="rgb(0, 0, 0)" stroke="rgb(204, 204, 204)" stroke-width="1px"></line><line x1="803.3333333333334" y1="0" x2="803.3333333333334" y2="5" style="visibility: inherit;" fill="rgb(0, 0, 0)" stroke="rgb(204, 204, 204)" stroke-width="1px"></line><line x1="964" y1="0" x2="964" y2="5" style="visibility: inherit;" fill="rgb(0, 0, 0)" stroke="rgb(204, 204, 204)" stroke-width="1px"></line><line x1="1124.6666666666667" y1="0" x2="1124.6666666666667" y2="5" style="visibility: inherit;" fill="rgb(0, 0, 0)" stroke="rgb(204, 204, 204)" stroke-width="1px"></line><line x1="1285.3333333333333" y1="0" x2="1285.3333333333333" y2="5" style="visibility: inherit;" fill="rgb(0, 0, 0)" stroke="rgb(204, 204, 204)" stroke-width="1px"></line><line x1="1446" y1="0" x2="1446" y2="5" style="visibility: inherit;" fill="rgb(0, 0, 0)" stroke="rgb(204, 204, 204)" stroke-width="1px"></line></g><g transform="translate(0, 8)"><text x="0" y="0" dx="0em" dy="0.95em" style="text-anchor: middle; visibility: hidden; font-family: &quot;Helvetica Neue&quot;, sans-serif; font-size: 12px; font-weight: 200;" fill="rgb(50, 49, 63)" stroke="none" stroke-width="1px">-50</text><text x="160.66666666666666" y="0" dx="0em" dy="0.95em" style="text-anchor: middle; visibility: inherit; font-family: &quot;Helvetica Neue&quot;, sans-serif; font-size: 12px; font-weight: 200;" fill="rgb(50, 49, 63)" stroke="none" stroke-width="1px">0</text><text x="321.3333333333333" y="0" dx="0em" dy="0.95em" style="text-anchor: middle; visibility: inherit; font-family: &quot;Helvetica Neue&quot;, sans-serif; font-size: 12px; font-weight: 200;" fill="rgb(50, 49, 63)" stroke="none" stroke-width="1px">50</text><text x="482" y="0" dx="0em" dy="0.95em" style="text-anchor: middle; visibility: inherit; font-family: &quot;Helvetica Neue&quot;, sans-serif; font-size: 12px; font-weight: 200;" fill="rgb(50, 49, 63)" stroke="none" stroke-width="1px">100</text><text x="642.6666666666666" y="0" dx="0em" dy="0.95em" style="text-anchor: middle; visibility: inherit; font-family: &quot;Helvetica Neue&quot;, sans-serif; font-size: 12px; font-weight: 200;" fill="rgb(50, 49, 63)" stroke="none" stroke-width="1px">150</text><text x="803.3333333333334" y="0" dx="0em" dy="0.95em" style="text-anchor: middle; visibility: inherit; font-family: &quot;Helvetica Neue&quot;, sans-serif; font-size: 12px; font-weight: 200;" fill="rgb(50, 49, 63)" stroke="none" stroke-width="1px">200</text><text x="964" y="0" dx="0em" dy="0.95em" style="text-anchor: middle; visibility: inherit; font-family: &quot;Helvetica Neue&quot;, sans-serif; font-size: 12px; font-weight: 200;" fill="rgb(50, 49, 63)" stroke="none" stroke-width="1px">250</text><text x="1124.6666666666667" y="0" dx="0em" dy="0.95em" style="text-anchor: middle; visibility: inherit; font-family: &quot;Helvetica Neue&quot;, sans-serif; font-size: 12px; font-weight: 200;" fill="rgb(50, 49, 63)" stroke="none" stroke-width="1px">300</text><text x="1285.3333333333333" y="0" dx="0em" dy="0.95em" style="text-anchor: middle; visibility: inherit; font-family: &quot;Helvetica Neue&quot;, sans-serif; font-size: 12px; font-weight: 200;" fill="rgb(50, 49, 63)" stroke="none" stroke-width="1px">350</text><text x="1446" y="0" dx="0em" dy="0.95em" style="text-anchor: middle; visibility: hidden; font-family: &quot;Helvetica Neue&quot;, sans-serif; font-size: 12px; font-weight: 200;" fill="rgb(50, 49, 63)" stroke="none" stroke-width="1px">400</text></g><line x1="0" y1="0" x2="1446" y2="0" fill="rgb(0, 0, 0)" stroke="rgb(204, 204, 204)" stroke-width="1px"></line></g></g></g></g></svg>