<svg viewBox="0 0 1496 400" xmlns="http://www.w3.org/2000/svg"><g><g><g><g><g><line x1="60" y1="378" x2="55" y2="378" style="visibility: inherit;" fill="rgb(0, 0, 0)" stroke="rgb(204, 204, 204)" stroke-width="1px"></line><line x1="60" y1="340.2" x2="55" y2="340.2" style="visibility: inherit;" fill="rgb(0, 0, 0)" stroke="rgb(204, 204, 204)" stroke-width="1px"></line><line x1="60" y1="302.4" x2="55" y2="302.4" style="visibility: inherit;" fill="rgb(0, 0, 0)" stroke="rgb(204, 204, 204)" stroke-width="1px"></line><line x1="60" y1="264.59999999999997" x2="55" y2="264.59999999999997" style="visibility: inherit;" fill="rgb(0, 0, 0)" stroke="rgb(204, 204, 204)" stroke-width="1px"></line><line x1="60" y1="226.79999999999998" x2="55" y2="226.79999999999998" style="visibility: inherit;" fill="rgb(0, 0, 0)" stroke="rgb(204, 204, 204)" stroke-width="1px"></line><line x1="60" y1="189" x2="55" y2="189" style="visibility: inherit;" fill="rgb(0, 0, 0)" stroke="rgb(204, 204, 204)" stroke-width="1px"></line><line x1="60" y1="151.20000000000002" x2="55" y2="151.20000000000002" style="visibility: inherit;" fill="rgb(0, 0, 0)" stroke="rgb(204, 204, 204)" stroke-width="1px"></line><line x1="60" y1="113.40000000000003" x2="55" y2="113.40000000000003" style="visibility: inherit;" fill="rgb(0, 0, 0)" stroke="rgb(204, 204, 204)" stroke-width="1px"></line><line x1="60" y1="75.60000000000002" x2="55" y2="75.60000000000002" style="visibility: inherit;" fill="rgb(0, 0, 0)" stroke="rgb(204, 204, 204)" stroke-width="1px"></line><line x1="60" y1="37.80000000000001" x2="55" y2="37.80000000000001" style="visibility: inherit;" fill="rgb(0, 0, 0)" stroke="rgb(204, 204, 204)" stroke-width="1px"></line><line x1="60" y1="0" x2="55" y2="0" style="visibility: inherit;" fill="rgb(0, 0, 0)" stroke="rgb(204, 204, 204)" stroke-width="1px"></line></g><g transform="translate(50, 0)"><text x="0" y="378" dx="0em" dy="0.3em" style="text-anchor: end; visibility: hidden; font-family: &quot;Helvetica Neue&quot;, sans-serif; font-size: 12px; font-weight: 200;" fill="rgb(50, 49, 63)" stroke="none" stroke-width="1px">-0.05</text><text x="0" y="340.2" dx="0em" dy="0.3em" style="text-anchor: end; visibility: inherit; font-family: &quot;Helvetica Neue&quot;, sans-serif; font-size: 12px; font-weight: 200;" fill="rgb(50, 49, 63)" stroke="none" stroke-width="1px">0</text><text x="0" y="302.4" dx="0em" dy="0.3em" style="text-anchor: end; visibility: inherit; font-family: &quot;Helvetica Neue&quot;, sans-serif; font-size: 12px; font-weight: 200;" fill="rgb(50, 49, 63)" stroke="none" stroke-width="1px">0.05</text><text x="0" y="264.59999999999997" dx="0em" dy="0.3em" style="text-anchor: end; visibility: inherit; font-family: &quot;Helvetica Neue&quot;, sans-serif; font-size: 12px; font-weight: 200;" fill="rgb(50, 49, 63)" stroke="none" stroke-width="1px">0.1</text><text x="0" y="226.79999999999998" dx="0em" dy="0.3em" style="text-anchor: end; visibility: inherit; font-family: &quot;Helvetica Neue&quot;, sans-serif; font-size: 12px; font-weight: 200;" fill="rgb(50, 49, 63)" stroke="none" stroke-width="1px">0.15</text><text x="0" y="189" dx="0em" dy="0.3em" style="text-anchor: end; visibility: inherit; font-family: &quot;Helvetica Neue&quot;, sans-serif; font-size: 12px; font-weight: 200;" fill="rgb(50, 49, 63)" stroke="none" stroke-width="1px">0.2</text><text x="0" y="151.20000000000002" dx="0em" dy="0.3em" style="text-anchor: end; visibility: inherit; font-family: &quot;Helvetica Neue&quot;, sans-serif; font-size: 12px; font-weight: 200;" fill="rgb(50, 49, 63)" stroke="none" stroke-width="1px">0.25</text><text x="0" y="113.40000000000003" dx="0em" dy="0.3em" style="text-anchor: end; visibility: inherit; font-family: &quot;Helvetica Neue&quot;, sans-serif; font-size: 12px; font-weight: 200;" fill="rgb(50, 49, 63)" stroke="none" stroke-width="1px">0.3</text><text x="0" y="75.60000000000002" dx="0em" dy="0.3em" style="text-anchor: end; visibility: inherit; font-family: &quot;Helvetica Neue&quot;, sans-serif; font-size: 12px; font-weight: 200;" fill="rgb(50, 49, 63)" stroke="none" stroke-width="1px">0.35</text><text x="0" y="37.80000000000001" dx="0em" dy="0.3em" style="text-anchor: end; visibility: inherit; font-family: &quot;Helvetica Neue&quot;, sans-serif; font-size: 12px; font-weight: 200;" fill="rgb(50, 49, 63)" stroke="none" stroke-width="1px">0.4</text><text x="0" y="0" dx="0em" dy="0.3em" style="text-anchor: end; visibility: hidden; font-family: &quot;Helvetica Neue&quot;, sans-serif; font-size: 12px; font-weight: 200;" fill="rgb(50, 49, 63)" stroke="none" stroke-width="1px">0.45</text></g><line x1="60" y1="0" x2="60" y2="378" fill="rgb(0, 0, 0)" stroke="rgb(204, 204, 204)" stroke-width="1px"></line></g></g><g transform="translate(60, 0)" clip-path="url(#clip_0)"><clipPath id="clip_0"><rect width="1436" height="378"></rect></clipPath><g><g><g><line x1="0" y1="0" x2="0" y2="378" fill="rgb(0, 0, 0)" stroke="rgb(60, 60, 60)" stroke-width="1px" opacity="0.25"></line><line x1="159.55555555555554" y1="0" x2="159.55555555555554" y2="378" fill="rgb(0, 0, 0)" stroke="rgb(60, 60, 60)" stroke-width="1px" opacity="0.25"></line><line x1="319.1111111111111" y1="0" x2="319.1111111111111" y2="378" fill="rgb(0, 0, 0)" stroke="rgb(60, 60, 60)" stroke-width="1px" opacity="0.25"></line><line x1="478.66666666666663" y1="0" x2="478.66666666666663" y2="378" fill="rgb(0, 0, 0)" stroke="rgb(60, 60, 60)" stroke-width="1px" opacity="0.25"></line><line x1="638.2222222222222" y1="0" x2="638.2222222222222" y2="378" fill="rgb(0, 0, 0)" stroke="rgb(60, 60, 60)" stroke-width="1px" opacity="0.25"></line><line x1="797.7777777777778" y1="0" x2="797.7777777777778" y2="378" fill="rgb(0, 0, 0)" stroke="rgb(60, 60, 60)" stroke-width="1px" opacity="0.25"></line><line x1="957.3333333333333" y1="0" x2="957.3333333333333" y2="378" fill="rgb(0, 0, 0)" stroke="rgb(60, 60, 60)" stroke-width="1px" opacity="0.25"></line><line x1="1116.888888888889" y1="0" x2="1116.888888888889" y2="378" fill="rgb(0, 0, 0)" stroke="rgb(60, 60, 60)" stroke-width="1px" opacity="0.25"></line><line x1="1276.4444444444443" y1="0" x2="1276.4444444444443" y2="378" fill="rgb(0, 0, 0)" stroke="rgb(60, 60, 60)" stroke-width="1px" opacity="0.25"></line><line x1="1436" y1="0" x2="1436" y2="378" fill="rgb(0, 0, 0)" stroke="rgb(60, 60, 60)" stroke-width="1px" opacity="0.25"></line></g><g><line x1="0" y1="378" x2="1436" y2="378" fill="rgb(0, 0, 0)" stroke="rgb(60, 60, 60)" stroke-width="1px" opacity="0.25"></line><line x1="0" y1="340.2" x2="1436" y2="340.2" fill="rgb(0, 0, 0)" stroke="rgb(60, 60, 60)" stroke-width="1px" opacity="0.25"></line><line x1="0" y1="302.4" x2="1436" y2="302.4" fill="rgb(0, 0, 0)" stroke="rgb(60, 60, 60)" stroke-width="1px" opacity="0.25"></line><line x1="0" y1="264.59999999999997" x2="1436" y2="264.59999999999997" fill="rgb(0, 0, 0)" stroke="rgb(60, 60, 60)" stroke-width="1px" opacity="0.25"></line><line x1="0" y1="226.79999999999998" x2="1436" y2="226.79999999999998" fill="rgb(0, 0, 0)" stroke="rgb(60, 60, 60)" stroke-width="1px" opacity="0.25"></line><line x1="0" y1="189" x2="1436" y2="189" fill="rgb(0, 0, 0)" stroke="rgb(60, 60, 60)" stroke-width="1px" opacity="0.25"></line><line x1="0" y1="151.20000000000002" x2="1436" y2="151.20000000000002" fill="rgb(0, 0, 0)" stroke="rgb(60, 60, 60)" stroke-width="1px" opacity="0.25"></line><line x1="0" y1="113.40000000000003" x2="1436" y2="113.40000000000003" fill="rgb(0, 0, 0)" stroke="rgb(60, 60, 60)" stroke-width="1px" opacity="0.25"></line><line x1="0" y1="75.60000000000002" x2="1436" y2="75.60000000000002" fill="rgb(0, 0, 0)" stroke="rgb(60, 60, 60)" stroke-width="1px" opacity="0.25"></line><line x1="0" y1="37.80000000000001" x2="1436" y2="37.80000000000001" fill="rgb(0, 0, 0)" stroke="rgb(60, 60, 60)" stroke-width="1px" opacity="0.25"></line><line x1="0" y1="0" x2="1436" y2="0" fill="rgb(0, 0, 0)" stroke="rgb(60, 60, 60)" stroke-width="1px" opacity="0.25"></line></g></g></g><g><g><line x1="0" y1="340.2" x2="1436" y2="340.2" fill="rgb(0, 0, 0)" stroke="rgb(153, 153, 153)" stroke-width="1.5px"></line></g></g><g><g><line x1="159.55555555555554" y1="0" x2="159.55555555555554" y2="378" fill="rgb(0, 0, 0)" stroke="rgb(153, 153, 153)" stroke-width="1.5px"></line></g></g><g><g><g><g><g><path stroke="rgb(255, 112, 67)" stroke-width="2px" d="M162.74666666666667,95.95219345092772L169.1288888888889,20.01580237781303L175.5111111111111,49.346648889887206L181.89333333333335,53.72508748870115L188.27555555555557,44.143145008567615L194.6577777777778,58.789336729871195L201.04000000000002,53.79246983148295L207.4222222222222,61.61964182182601L213.8044444444444,65.78701443448495L220.18666666666664,63.4084257727323L226.56888888888886,56.334511297588165L232.9511111111111,37.95290572988313L239.33333333333331,54.25162015386866L245.71555555555554,81.3105155946173L252.09777777777776,101.60940205848749L258.48,122.48352454921258L264.8622222222222,89.7981717347435L271.2444444444444,95.116874016824L277.62666666666667,60.48077928723666L284.00888888888886,16.740862805010693L290.3911111111111,43.77722967690744L296.7733333333333,61.379489747218315L303.15555555555557,72.72836747317649L309.53777777777776,72.12754689062348L315.92,76.69691264105916L322.3022222222222,100.11757267220997L328.68444444444447,113.37462032677718L335.06666666666666,118.48620030477764L341.4488888888889,117.98909082810235L347.8311111111111,101.35686500597194L354.21333333333337,110.85277548526949L360.59555555555556,95.39729782773105L366.97777777777776,98.28711150549549L373.36,102.55851701963752L379.7422222222222,97.89230130360079L386.12444444444446,108.61417705859856L392.50666666666666,117.0545559885453L398.8888888888889,119.3838411635245L405.2711111111111,131.1810395850186L411.65333333333336,130.83954102027417L418.03555555555556,121.21191601567966L424.4177777777778,133.79510198775475L430.8,142.3410038928523L437.18222222222226,151.78684563967155L443.5644444444444,152.38370943695372L449.9466666666667,167.4825726072623L456.32888888888886,150.8523823162612L462.71111111111117,136.3530695504539L469.0933333333333,136.4539133638853L475.4755555555556,127.15940668134755L481.85777777777776,156.6440728317863L488.24,154.50885257358922L494.6222222222222,136.27319882338426L501.00444444444446,131.84228985242996L507.38666666666666,138.6142194082962L513.7688888888888,107.88698504121737L520.1511111111112,127.95326955386415L526.5333333333333,146.47919275096686L532.9155555555556,153.85262228880697L539.2977777777777,162.55036689177666L545.68,171.29999234993036L552.0622222222222,177.07349163801402L558.4444444444445,166.42683573239907L564.8266666666666,160.2100788067542L571.2088888888889,149.97380725256969L577.5911111111111,159.7284996490044L583.9733333333334,179.21413250593872L590.3555555555555,198.01553656286436L596.7377777777778,207.981309031628L603.12,176.98431764349792L609.5022222222223,179.13963880627378L615.8844444444444,171.06480483845343L622.2666666666667,158.05251185652943L628.6488888888889,158.42269887150502L635.0311111111112,172.36446191589204L641.4133333333333,192.22980718645798L647.7955555555556,190.85227455324568L654.1777777777778,172.15578942317092L660.5600000000001,193.74420283224885L666.9422222222222,146.58421132489616L673.3244444444445,141.83133070265293L679.7066666666667,146.11311547962381L686.088888888889,153.920132259945L692.4711111111111,178.5497020060129L698.8533333333334,179.4763249155393L705.2355555555556,162.6766016068152L711.6177777777779,173.95668391620177L718,186.7161799163467L724.3822222222223,185.9278726860635L730.7644444444444,190.98280257954264L737.1466666666666,191.60596018026243L743.5288888888889,181.80284007187552L749.9111111111112,162.3723655635745L756.2933333333333,148.65792029866628L762.6755555555555,159.305838380301L769.0577777777778,165.6441003287642L775.44,151.60944112303193L781.8222222222222,143.50774212537942L788.2044444444444,164.27816769966168L794.5866666666667,146.0538085659323L800.968888888889,163.90968939300495L807.3511111111111,167.37004702034253L813.7333333333333,176.54959245497668L820.1155555555556,186.64608076614545L826.4977777777779,181.49611701729793L832.88,197.26017181233905L839.2622222222222,197.0248403788322L845.6444444444445,172.67038457202707L852.0266666666668,184.97219467884324L858.4088888888888,156.88338204431278L864.7911111111111,167.2615554537662L871.1733333333334,145.09290451788L877.5555555555557,141.78737474250661L883.9377777777777,159.3406611695553L890.32,149.00243943530015L896.7022222222223,162.30400991272182L903.0844444444446,115.8517403858238L909.4666666666666,118.74251439305664L915.8488888888888,114.55562904686343L922.2311111111112,135.7679636526469L928.6133333333332,135.67539665505805L934.9955555555555,145.6778088947237L941.3777777777777,124.64519161562504L947.76,127.33939461969553L954.1422222222221,147.3505649171847L960.5244444444444,154.1823947163308L966.9066666666666,165.68687430004368L973.2888888888889,124.45678021095742L979.671111111111,127.30302362523699L986.0533333333333,125.59289282577313L992.4355555555555,98.35152732930993L998.8177777777778,125.98956793560836L1005.1999999999999,138.1186769475906L1011.5822222222222,126.96792279560205L1017.9644444444444,152.83291991247174L1024.3466666666668,160.04285365175807L1030.7288888888888,177.11242331395357L1037.111111111111,175.79852397046577L1043.4933333333333,180.34772172461336L1049.8755555555556,170.35108555635048L1056.2577777777776,149.6358110301164L1062.64,162.74354796482797L1069.0222222222224,153.95957613055455L1075.4044444444446,140.89253321769343L1081.7866666666666,159.13023285446377L1088.168888888889,155.5358043612546L1094.5511111111111,176.4448689242712L1100.9333333333334,155.0003968353436L1107.3155555555554,156.28144257755267L1113.6977777777777,155.56211219107385L1120.08,150.8939026406178L1126.4622222222224,167.73854530081516L1132.8444444444444,157.5317842738621L1139.2266666666667,155.97441103349743L1145.608888888889,149.37626190876142L1151.991111111111,151.97467909722883L1158.3733333333332,166.61323248241428L1164.7555555555555,162.71123228756642L1171.1377777777777,162.0969829367557L1177.52,172.96939050077762L1183.9022222222222,186.92771607353103L1190.2844444444445,195.55893139296535L1196.6666666666667,199.76976489910518L1203.0488888888888,196.19797806318573L1209.431111111111,187.7343264130651L1215.8133333333333,187.30450709035821L1222.1955555555555,203.5702664605278L1228.5777777777778,202.4750382832618L1234.96,200.99290102922652L1241.3422222222223,181.3907171052198L1247.7244444444445,175.9176706720483L1254.1066666666666,184.79602577407402L1260.4888888888888,201.1993249483163L1266.871111111111,210.2684701994725L1273.2533333333333,213.66493743614143L1279.6355555555556,211.04800728479856L1286.0177777777778,213.31678444285575L1292.4,185.3549395959505L1298.7822222222223,184.35998349625032L1305.1644444444444,156.50714722720656L1311.5466666666666,174.84372934539354L1317.9288888888889,178.23193895604612L1324.3111111111111,164.4646483439826L1330.6933333333334,185.3329520452231L1337.0755555555556,197.56325796036558L1343.457777777778,205.74104666908687L1349.84,210.95621661404854L1356.2222222222222,201.77454611840878L1362.6044444444444,205.70091033746615" style="fill: none;" fill="none"></path></g></g></g></g><g opacity="0.2"><g><g><g><path stroke="rgb(255, 112, 67)" stroke-width="2px" d="M162.74666666666667,95.95219345092772L169.1288888888889,-43.467020559310924L175.5111111111111,94.3664478778839L181.89333333333335,63.00375659465789L188.27555555555557,19.156997036933888L194.6577777777778,102.96192247867583L201.04000000000002,37.016202521324146L207.4222222222222,90.13207776546477L213.8044444444444,81.96200258731841L220.18666666666664,53.70188148021697L226.56888888888886,26.28771514892577L232.9511111111111,-42.68629174232484L239.33333333333331,127.6527304172516L245.71555555555554,205.80628277063371L252.09777777777776,196.6562523365021L258.48,221.6451958537102L264.8622222222222,-67.33287220001222L271.2444444444444,120.93903036117553L277.62666666666667,-109.05450468063356L284.00888888888886,-198.81020050048835L290.3911111111111,177.76466299295427L296.7733333333333,149.02233166694643L303.15555555555557,129.45573813915254L309.53777777777776,69.11458404064177L315.92,99.67318232059478L322.3022222222222,218.15025604963304L328.68444444444447,180.3117648482323L335.06666666666666,144.33602113723757L341.4488888888889,115.47185583114623L347.8311111111111,17.04329295158385L354.21333333333337,159.03432483673097L360.59555555555556,16.917437267303455L366.97777777777776,112.97037835121154L373.36,124.2732822418213L379.7422222222222,74.15985138416289L386.12444444444446,163.16611332893373L392.50666666666666,160.01180173158647L398.8888888888889,131.2418028831482L405.2711111111111,191.25145364999773L411.65333333333336,129.10034115314485L418.03555555555556,72.17245359420775L424.4177777777778,197.89720155000688L430.8,185.8807211637497L437.18222222222226,199.91584922075273L443.5644444444444,155.42511005401613L449.9466666666667,244.42564923763277L456.32888888888886,66.10134751796721L462.71111111111117,62.45824677944182L469.0933333333333,136.9678760290146L475.4755555555556,79.78739840984343L481.85777777777776,306.9245800048113L488.24,143.6256101846695L494.6222222222222,43.32421739101409L501.00444444444446,109.25716252326964L507.38666666666666,173.13236947059633L513.7688888888888,-48.738719987869274L520.1511111111112,230.2378766655922L526.5333333333333,240.91274131536485L532.9155555555556,191.43797285556795L539.2977777777777,206.88651026487352L545.68,215.90078283548357L552.0622222222222,206.50372738838198L558.4444444444445,112.155673456192L564.8266666666666,128.5201793432236L571.2088888888889,97.79433674812316L577.5911111111111,209.4532024383545L583.9733333333334,278.5426052033901L590.3555555555555,293.8562521755695L596.7377777777778,258.7821813046932L603.12,18.975941491127003L609.5022222222223,190.12648047208788L615.8844444444444,129.90296967029573L622.2666666666667,91.72172112464904L628.6488888888889,160.30974580049516L635.0311111111112,243.43332470655443L641.4133333333333,293.49446777701377L647.7955555555556,183.83022655248644L654.1777777777778,76.8494139432907L660.5600000000001,303.79236243367194L666.9422222222222,-93.81654911041261L673.3244444444445,117.60324640274047L679.7066666666667,167.93976355791094L686.088888888889,193.71685971021654L692.4711111111111,304.1003917425871L698.8533333333334,184.19984031915666L705.2355555555556,77.0390085697174L711.6177777777779,231.45757956504823L718,251.7584776997566L724.3822222222223,181.9094290852547L730.7644444444444,216.75061286687853L737.1466666666666,194.7825437307358L743.5288888888889,131.83084173202516L749.9111111111112,63.3243438720703L756.2933333333333,78.74770338535308L762.6755555555555,213.58424742221834L769.0577777777778,197.9537757754326L775.44,80.066912484169L781.8222222222222,102.20883865356444L788.2044444444444,270.15667603611945L794.5866666666667,53.154028487205494L800.968888888889,254.9311291694641L807.3511111111111,185.0094307780266L813.7333333333333,223.34288449287416L820.1155555555556,238.11354507207872L826.4977777777779,155.24386299848558L832.88,277.6184018075466L839.2622222222222,195.82522405385973L845.6444444444445,48.52206165790557L852.0266666666668,247.68142156004907L858.4088888888888,13.698947381973255L864.7911111111111,220.1649270772934L871.1733333333334,32.086854887008656L877.5555555555557,124.93723518848421L883.9377777777777,248.8196089088917L890.32,96.30272383689879L896.7022222222223,230.10957641601564L903.0844444444446,-120.94153575897218L909.4666666666666,133.47841114997865L915.8488888888888,93.21272571086882L922.2311111111112,243.89913268089296L928.6133333333332,135.20353074073793L934.9955555555555,196.66571516990663L941.3777777777777,17.430142593383778L947.76,141.07325870990755L954.1422222222221,249.35872567892076L960.5244444444444,189.00806368589403L966.9066666666666,224.3316604614258L973.2888888888889,-85.71613841056825L979.671111111111,141.81192297935488L986.0533333333333,116.87539680004119L992.4355555555555,-40.51299433708192L998.8177777777778,266.876165163517L1005.1999999999999,199.94754971265795L1011.5822222222222,70.12627358436583L1017.9644444444444,284.68131984472274L1024.3466666666668,196.79593051671984L1030.7288888888888,264.12559549212455L1037.111111111111,169.10084195137026L1043.4933333333333,203.53753466606142L1049.8755555555556,119.39262313842772L1056.2577777777776,44.03843600749968L1062.64,229.56103624105455L1069.0222222222224,109.18274409770964L1075.4044444444446,74.2824851989746L1081.7866666666666,252.09801880717276L1088.168888888889,137.21298594474794L1094.5511111111111,283.0301004767418L1100.9333333333334,45.68589277267455L1107.3155555555554,162.81165136098863L1113.6977777777777,151.89528168439867L1120.08,127.09741981029512L1126.4622222222224,253.60513837337493L1132.8444444444444,105.50219757556914L1139.2266666666667,148.03560597896578L1145.608888888889,115.74179441928862L1151.991111111111,165.22026915550234L1158.3733333333332,241.23415095806124L1164.7555555555555,142.82054836750032L1171.1377777777777,158.96580941677095L1177.52,228.39215101003649L1183.9022222222222,258.08113179802893L1190.2844444444445,239.55707777738573L1196.6666666666667,221.23474545478823L1203.0488888888888,177.99057687520983L1209.431111111111,144.59034605026247L1215.8133333333333,185.1134768843651L1222.1955555555555,286.4859666645527L1228.5777777777778,196.8920458674431L1234.96,193.43761600255968L1241.3422222222223,81.46738929748534L1247.7244444444445,148.0184827566147L1254.1066666666666,230.05398226976396L1260.4888888888888,284.8161426901817L1266.871111111111,256.4989911139011L1273.2533333333333,230.97863627672197L1279.6355555555556,197.70804626941683L1286.0177777777778,224.88201434612276L1292.4,42.81773049831389L1298.7822222222223,179.28813410997392L1305.1644444444444,14.525616002082813L1311.5466666666666,268.3155747771263L1317.9288888888889,195.50354404449465L1324.3111111111111,94.28504498004912L1330.6933333333334,291.7104026198387L1337.0755555555556,259.9079881131649L1343.457777777778,247.4278232574463L1349.84,237.5408634066582L1356.2222222222222,154.97042090892793L1362.6044444444444,225.71579135656359" style="fill: none;" fill="none"></path></g></g></g></g></g></g><g transform="translate(60, 378)" clip-path="url(#clip_1)"><clipPath id="clip_1"><rect width="1436" height="22"></rect></clipPath><g><g><line x1="0" y1="0" x2="0" y2="5" style="visibility: inherit;" fill="rgb(0, 0, 0)" stroke="rgb(204, 204, 204)" stroke-width="1px"></line><line x1="159.55555555555554" y1="0" x2="159.55555555555554" y2="5" style="visibility: inherit;" fill="rgb(0, 0, 0)" stroke="rgb(204, 204, 204)" stroke-width="1px"></line><line x1="319.1111111111111" y1="0" x2="319.1111111111111" y2="5" style="visibility: inherit;" fill="rgb(0, 0, 0)" stroke="rgb(204, 204, 204)" stroke-width="1px"></line><line x1="478.66666666666663" y1="0" x2="478.66666666666663" y2="5" style="visibility: inherit;" fill="rgb(0, 0, 0)" stroke="rgb(204, 204, 204)" stroke-width="1px"></line><line x1="638.2222222222222" y1="0" x2="638.2222222222222" y2="5" style="visibility: inherit;" fill="rgb(0, 0, 0)" stroke="rgb(204, 204, 204)" stroke-width="1px"></line><line x1="797.7777777777778" y1="0" x2="797.7777777777778" y2="5" style="visibility: inherit;" fill="rgb(0, 0, 0)" stroke="rgb(204, 204, 204)" stroke-width="1px"></line><line x1="957.3333333333333" y1="0" x2="957.3333333333333" y2="5" style="visibility: inherit;" fill="rgb(0, 0, 0)" stroke="rgb(204, 204, 204)" stroke-width="1px"></line><line x1="1116.888888888889" y1="0" x2="1116.888888888889" y2="5" style="visibility: inherit;" fill="rgb(0, 0, 0)" stroke="rgb(204, 204, 204)" stroke-width="1px"></line><line x1="1276.4444444444443" y1="0" x2="1276.4444444444443" y2="5" style="visibility: inherit;" fill="rgb(0, 0, 0)" stroke="rgb(204, 204, 204)" stroke-width="1px"></line><line x1="1436" y1="0" x2="1436" y2="5" style="visibility: inherit;" fill="rgb(0, 0, 0)" stroke="rgb(204, 204, 204)" stroke-width="1px"></line></g><g transform="translate(0, 8)"><text x="0" y="0" dx="0em" dy="0.95em" style="text-anchor: middle; visibility: hidden; font-family: &quot;Helvetica Neue&quot;, sans-serif; font-size: 12px; font-weight: 200;" fill="rgb(50, 49, 63)" stroke="none" stroke-width="1px">-50</text><text x="159.55555555555554" y="0" dx="0em" dy="0.95em" style="text-anchor: middle; visibility: inherit; font-family: &quot;Helvetica Neue&quot;, sans-serif; font-size: 12px; font-weight: 200;" fill="rgb(50, 49, 63)" stroke="none" stroke-width="1px">0</text><text x="319.1111111111111" y="0" dx="0em" dy="0.95em" style="text-anchor: middle; visibility: inherit; font-family: &quot;Helvetica Neue&quot;, sans-serif; font-size: 12px; font-weight: 200;" fill="rgb(50, 49, 63)" stroke="none" stroke-width="1px">50</text><text x="478.66666666666663" y="0" dx="0em" dy="0.95em" style="text-anchor: middle; visibility: inherit; font-family: &quot;Helvetica Neue&quot;, sans-serif; font-size: 12px; font-weight: 200;" fill="rgb(50, 49, 63)" stroke="none" stroke-width="1px">100</text><text x="638.2222222222222" y="0" dx="0em" dy="0.95em" style="text-anchor: middle; visibility: inherit; font-family: &quot;Helvetica Neue&quot;, sans-serif; font-size: 12px; font-weight: 200;" fill="rgb(50, 49, 63)" stroke="none" stroke-width="1px">150</text><text x="797.7777777777778" y="0" dx="0em" dy="0.95em" style="text-anchor: middle; visibility: inherit; font-family: &quot;Helvetica Neue&quot;, sans-serif; font-size: 12px; font-weight: 200;" fill="rgb(50, 49, 63)" stroke="none" stroke-width="1px">200</text><text x="957.3333333333333" y="0" dx="0em" dy="0.95em" style="text-anchor: middle; visibility: inherit; font-family: &quot;Helvetica Neue&quot;, sans-serif; font-size: 12px; font-weight: 200;" fill="rgb(50, 49, 63)" stroke="none" stroke-width="1px">250</text><text x="1116.888888888889" y="0" dx="0em" dy="0.95em" style="text-anchor: middle; visibility: inherit; font-family: &quot;Helvetica Neue&quot;, sans-serif; font-size: 12px; font-weight: 200;" fill="rgb(50, 49, 63)" stroke="none" stroke-width="1px">300</text><text x="1276.4444444444443" y="0" dx="0em" dy="0.95em" style="text-anchor: middle; visibility: inherit; font-family: &quot;Helvetica Neue&quot;, sans-serif; font-size: 12px; font-weight: 200;" fill="rgb(50, 49, 63)" stroke="none" stroke-width="1px">350</text><text x="1436" y="0" dx="0em" dy="0.95em" style="text-anchor: middle; visibility: hidden; font-family: &quot;Helvetica Neue&quot;, sans-serif; font-size: 12px; font-weight: 200;" fill="rgb(50, 49, 63)" stroke="none" stroke-width="1px">400</text></g><line x1="0" y1="0" x2="1436" y2="0" fill="rgb(0, 0, 0)" stroke="rgb(204, 204, 204)" stroke-width="1px"></line></g></g></g></g></svg>